<?xml version="1.0" encoding="UTF-8" standalone="no"?>
<svg
   viewBox="0 0 440.98 128.9"
   version="1.1"
   id="svg48"
   sodipodi:docname="logo.svg"
   inkscape:version="1.3 (0e150ed6c4, 2023-07-21)"
   xmlns:inkscape="http://www.inkscape.org/namespaces/inkscape"
   xmlns:sodipodi="http://sodipodi.sourceforge.net/DTD/sodipodi-0.dtd"
   xmlns="http://www.w3.org/2000/svg"
   xmlns:svg="http://www.w3.org/2000/svg"
   xmlns:rdf="http://www.w3.org/1999/02/22-rdf-syntax-ns#"
   xmlns:cc="http://creativecommons.org/ns#"
   xmlns:dc="http://purl.org/dc/elements/1.1/">
  <metadata
     id="metadata52">
    <rdf:RDF>
      <cc:Work
         rdf:about="">
        <dc:format>image/svg+xml</dc:format>
        <dc:type
           rdf:resource="http://purl.org/dc/dcmitype/StillImage" />
        <dc:title>horizon-eda-logo_with_text</dc:title>
      </cc:Work>
    </rdf:RDF>
  </metadata>
  <sodipodi:namedview
     pagecolor="#ffffff"
     bordercolor="#666666"
     borderopacity="1"
     objecttolerance="10"
     gridtolerance="10"
     guidetolerance="10"
     inkscape:pageopacity="0"
     inkscape:pageshadow="2"
     inkscape:window-width="1331"
     inkscape:window-height="1150"
     id="namedview50"
     showgrid="false"
     inkscape:zoom="1.5873735"
     inkscape:cx="235.60932"
     inkscape:cy="162.53263"
     inkscape:window-x="0"
     inkscape:window-y="0"
     inkscape:window-maximized="1"
     inkscape:current-layer="Layer_1"
     inkscape:showpageshadow="2"
     inkscape:pagecheckerboard="0"
     inkscape:deskcolor="#d1d1d1" />
  <defs
     id="defs7">
    <style
       id="style2">.cls-1{fill:none;}.cls-2{clip-path:url(#clip-path);}.cls-3{fill:#e5e5e5;}.cls-4{fill:#292929;}.cls-5{fill:#94ccef;}.cls-6{font-size:45px;font-family:Roboto-Medium, Roboto;font-weight:500;}.cls-6,.cls-9{fill:#e4e5e5;}.cls-7{letter-spacing:-0.01em;}.cls-8{letter-spacing:-0.01em;}.cls-9{font-size:35px;font-family:Roboto-Light, Roboto;font-weight:300;}.cls-10{letter-spacing:-0.01em;}.cls-11{letter-spacing:-0.01em;}</style>
    <clipPath
       id="clip-path">
      <rect
         class="cls-1"
         y="13.65"
         width="109.24"
         height="109.24"
         id="rect4" />
    </clipPath>
  </defs>
  <title
     id="title9">horizon-eda-logo_with_text</title>
  <g
     id="Layer_1"
     data-name="Layer 1">
    <g
       id="g1"
       transform="matrix(6.8125004,0,0,6.8125004,-361.06254,214.32876)">
      <path
         style="color:#000000;font-variation-settings:normal;overflow:visible;vector-effect:none;fill:#e9e9e9;fill-opacity:1;stroke:none;stroke-width:2;stroke-linecap:butt;stroke-linejoin:round;stroke-miterlimit:4;stroke-dasharray:none;stroke-dashoffset:0;stroke-opacity:1;-inkscape-stroke:none;paint-order:markers fill stroke;stop-color:#000000"
         d="M 63.500027,-24.5011 68.500002,-28.501102 V -19.001101 L 63.500027,-14.501101 Z"
         id="path3" />
      <path
         style="color:#000000;overflow:visible;fill:#fffeec;fill-opacity:1;stroke:none;stroke-width:2;stroke-linejoin:round;stroke-opacity:1;paint-order:markers fill stroke"
         d="M 53.999995,-26.0011 59.492972,-29.500001 68.500002,-28.501102 63.500027,-24.5011 Z"
         id="path1"
         sodipodi:nodetypes="ccccc" />
      <path
         style="color:#000000;overflow:visible;fill:#bcebf1;fill-opacity:1;stroke:none;stroke-width:2;stroke-linejoin:round;stroke-opacity:1;paint-order:markers fill stroke"
         d="M 53.999995,-26.0011 63.500027,-24.5011 V -14.501101 L 53.500002,-16.001101 Z"
         id="path2" />
      <path
         sodipodi:nodetypes="cc"
         inkscape:connector-curvature="0"
         id="path6915"
         d="M 68.500002,-19.001101 V -28.501102"
         style="color:#000000;clip-rule:nonzero;display:inline;overflow:visible;visibility:visible;isolation:auto;mix-blend-mode:normal;color-interpolation:sRGB;color-interpolation-filters:linearRGB;solid-color:#000000;solid-opacity:1;vector-effect:none;fill:none;fill-opacity:1;fill-rule:nonzero;stroke:#010101;stroke-width:0.999999;stroke-linecap:round;stroke-linejoin:round;stroke-miterlimit:4;stroke-dasharray:none;stroke-dashoffset:0;stroke-opacity:1;marker:none;color-rendering:auto;image-rendering:auto;shape-rendering:auto;text-rendering:auto;enable-background:accumulate" />
      <path
         sodipodi:nodetypes="cc"
         inkscape:connector-curvature="0"
         id="path6917"
         d="M 63.500027,-14.501101 68.500002,-19.001101"
         style="color:#000000;clip-rule:nonzero;display:inline;overflow:visible;visibility:visible;isolation:auto;mix-blend-mode:normal;color-interpolation:sRGB;color-interpolation-filters:linearRGB;solid-color:#000000;solid-opacity:1;vector-effect:none;fill:none;fill-opacity:1;fill-rule:nonzero;stroke:#010101;stroke-width:0.999999;stroke-linecap:butt;stroke-linejoin:round;stroke-miterlimit:4;stroke-dasharray:none;stroke-dashoffset:0;stroke-opacity:1;marker:none;color-rendering:auto;image-rendering:auto;shape-rendering:auto;text-rendering:auto;enable-background:accumulate" />
      <path
         sodipodi:nodetypes="cc"
         inkscape:connector-curvature="0"
         id="path6923"
         d="M 63.500027,-24.5011 53.500002,-26.0011"
         style="vector-effect:none;fill:none;fill-opacity:1;fill-rule:evenodd;stroke:#010101;stroke-width:0.999999;stroke-linecap:butt;stroke-linejoin:round;stroke-miterlimit:4;stroke-dasharray:none;stroke-dashoffset:0;stroke-opacity:1;marker:none" />
      <path
         sodipodi:nodetypes="cc"
         inkscape:connector-curvature="0"
         id="path6921"
         d="M 63.500027,-24.5011 68.500002,-28.501102"
         style="vector-effect:none;fill:none;fill-opacity:1;fill-rule:evenodd;stroke:#010101;stroke-width:0.999999;stroke-linecap:butt;stroke-linejoin:round;stroke-miterlimit:4;stroke-dasharray:none;stroke-dashoffset:0;stroke-opacity:1;marker:none" />
      <path
         sodipodi:nodetypes="cc"
         inkscape:connector-curvature="0"
         id="path6927"
         d="M 59.492972,-29.500001 68.500002,-28.501102"
         style="vector-effect:none;fill:none;fill-opacity:1;fill-rule:evenodd;stroke:#010101;stroke-width:0.999999;stroke-linecap:round;stroke-linejoin:round;stroke-miterlimit:4;stroke-dasharray:none;stroke-dashoffset:0;stroke-opacity:1;marker:none" />
      <path
         sodipodi:nodetypes="cc"
         inkscape:connector-curvature="0"
         id="path6925"
         d="M 59.492972,-29.500001 53.500002,-26.0011"
         style="vector-effect:none;fill:none;fill-opacity:1;fill-rule:evenodd;stroke:#010101;stroke-width:0.999999;stroke-linecap:round;stroke-linejoin:round;stroke-miterlimit:4;stroke-dasharray:none;stroke-dashoffset:0;stroke-opacity:1;marker:none" />
      <path
         sodipodi:nodetypes="cc"
         inkscape:connector-curvature="0"
         id="path6913"
         d="M 63.500027,-14.501101 53.500002,-16.001101"
         style="color:#000000;clip-rule:nonzero;display:inline;overflow:visible;visibility:visible;isolation:auto;mix-blend-mode:normal;color-interpolation:sRGB;color-interpolation-filters:linearRGB;solid-color:#000000;solid-opacity:1;vector-effect:none;fill:none;fill-opacity:1;fill-rule:nonzero;stroke:#010101;stroke-width:0.999999;stroke-linecap:round;stroke-linejoin:round;stroke-miterlimit:4;stroke-dasharray:none;stroke-dashoffset:0;stroke-opacity:1;marker:none;color-rendering:auto;image-rendering:auto;shape-rendering:auto;text-rendering:auto;enable-background:accumulate" />
      <path
         sodipodi:nodetypes="cc"
         inkscape:connector-curvature="0"
         id="path6911"
         d="M 53.500002,-16.001101 V -26.0011"
         style="color:#000000;clip-rule:nonzero;display:inline;overflow:visible;visibility:visible;isolation:auto;mix-blend-mode:normal;color-interpolation:sRGB;color-interpolation-filters:linearRGB;solid-color:#000000;solid-opacity:1;vector-effect:none;fill:none;fill-opacity:1;fill-rule:nonzero;stroke:#010101;stroke-width:0.999999;stroke-linecap:butt;stroke-linejoin:round;stroke-miterlimit:4;stroke-dasharray:none;stroke-dashoffset:0;stroke-opacity:1;marker:none;color-rendering:auto;image-rendering:auto;shape-rendering:auto;text-rendering:auto;enable-background:accumulate" />
      <path
         sodipodi:nodetypes="cc"
         inkscape:connector-curvature="0"
         id="path6919"
         d="M 63.500027,-14.501101 V -24.5011"
         style="vector-effect:none;fill:none;fill-opacity:1;fill-rule:evenodd;stroke:#010101;stroke-width:0.999999;stroke-linecap:butt;stroke-linejoin:round;stroke-miterlimit:4;stroke-dasharray:none;stroke-dashoffset:0;stroke-opacity:1;marker:none" />
    </g>
    <path
       style="font-weight:bold;font-size:45.3543px;line-height:78.018px;font-family:Roboto;-inkscape-font-specification:'Roboto Bold';letter-spacing:0px;word-spacing:0px;stroke-width:1px"
       d="M 133.78195,66.557083 V 34.313009 H 143.7032 Q 147.95517,34.313009 151.29916,36.239681 154.6653,38.144208 156.54768,41.687513 158.43006,45.208672 158.43006,49.70424 V 51.187999 Q 158.43006,55.683567 156.56983,59.18258 154.73174,62.681594 151.3656,64.608265 147.99946,66.534937 143.76964,66.557083 Z M 140.42565,39.694404 V 61.21998 H 143.63677 Q 147.5344,61.21998 149.59395,58.67323 151.65349,56.12648 151.69779,51.387309 V 49.682094 Q 151.69779,44.765759 149.66038,42.241154 147.62298,39.694404 143.7032,39.694404 Z M 177.18743,64.121061 Q 174.81785,66.999996 170.63232,66.999996 166.77898,66.999996 164.74158,64.785431 162.72632,62.570865 162.68203,58.296754 V 42.595484 H 169.08212 V 58.075297 Q 169.08212,61.817913 172.49255,61.817913 175.74797,61.817913 176.96598,59.559056 V 42.595484 H 183.38822 V 66.557083 H 177.3646 Z M 194.10672,42.595484 194.30603,45.363691 Q 196.87492,42.152571 201.19333,42.152571 205.00238,42.152571 206.86261,44.389282 208.72285,46.625994 208.76714,51.07727 V 66.557083 H 202.36705 V 51.23229 Q 202.36705,49.19489 201.48122,48.286918 200.59539,47.3568 198.53585,47.3568 195.83408,47.3568 194.48319,49.659948 V 66.557083 H 188.0831 V 42.595484 Z M 224.64557,66.999996 Q 219.3749,66.999996 216.05306,63.766731 212.75335,60.533465 212.75335,55.152071 V 54.531992 Q 212.75335,50.922251 214.14853,48.087607 215.54371,45.230817 218.09046,43.702767 220.65935,42.152571 223.93691,42.152571 228.85325,42.152571 231.66574,45.252963 234.50039,48.353355 234.50039,54.044788 V 56.657975 H 219.24203 Q 219.55207,59.005415 221.10227,60.422737 222.67461,61.840059 225.06634,61.840059 228.76466,61.840059 230.84635,59.160434 L 233.99104,62.681594 Q 232.55157,64.718994 230.0934,65.870568 227.63523,66.999996 224.64557,66.999996 Z M 223.91476,47.334655 Q 222.01024,47.334655 220.81437,48.619103 219.64065,49.903551 219.30847,52.295281 H 228.21102 V 51.785931 Q 228.16673,49.659948 227.05945,48.508374 225.95216,47.334655 223.91476,47.334655 Z M 255.67163,47.600402 H 259.08206 Q 261.51809,47.600402 262.69181,46.382391 263.86553,45.16438 263.86553,43.149126 263.86553,41.200308 262.69181,40.115171 261.54023,39.030034 259.50283,39.030034 257.66474,39.030034 256.42459,40.048734 255.18443,41.045289 255.18443,42.661921 H 248.78434 Q 248.78434,40.137317 250.13522,38.144208 251.50825,36.128953 253.94427,34.999525 256.40244,33.870096 259.34781,33.870096 264.46346,33.870096 267.36454,36.328264 270.26562,38.764286 270.26562,43.060543 270.26562,45.275109 268.91474,47.135344 267.56385,48.995579 265.37143,49.992133 268.09535,50.966542 269.42409,52.91536 270.77497,54.864177 270.77497,57.521656 270.77497,61.817913 267.63029,64.408955 264.50775,66.999996 259.34781,66.999996 254.52006,66.999996 251.44181,64.453246 248.38571,61.906496 248.38571,57.720967 H 254.78581 Q 254.78581,59.53691 256.13669,60.688485 257.50972,61.840059 259.50283,61.840059 261.78383,61.840059 263.06828,60.644193 264.37488,59.426182 264.37488,57.433073 264.37488,52.60532 259.05992,52.60532 H 255.67163 Z M 275.86847,66.557083 V 34.313009 H 285.78972 Q 290.04169,34.313009 293.38568,36.239681 296.75182,38.144208 298.6342,41.687513 300.51658,45.208672 300.51658,49.70424 V 51.187999 Q 300.51658,55.683567 298.65635,59.18258 296.81826,62.681594 293.45212,64.608265 290.08598,66.534937 285.85616,66.557083 Z M 282.51216,39.694404 V 61.21998 H 285.72328 Q 289.62092,61.21998 291.68047,58.67323 293.74001,56.12648 293.7843,51.387309 V 49.682094 Q 293.7843,44.765759 291.7469,42.241154 289.7095,39.694404 285.78972,39.694404 Z"
       id="text1"
       aria-label="Dune 3D" />
    <path
       style="font-size:34.0157px;line-height:58.5135px;font-family:Roboto;-inkscape-font-specification:Roboto;letter-spacing:0px;word-spacing:0px;stroke-width:1px"
       d="M 148.40914,91.103282 Q 148.40914,95.205762 146.5323,97.713755 144.65546,100.22175 141.44988,100.22175 138.17786,100.22175 136.30101,98.145595 V 106.799 H 133.22831 V 81.918379 H 136.03527 L 136.18475,83.911486 Q 138.06159,81.586194 141.40005,81.586194 144.63885,81.586194 146.51569,84.027751 148.40914,86.469307 148.40914,90.820925 Z M 145.33644,90.754488 Q 145.33644,87.715 144.04092,85.954421 142.7454,84.193843 140.48654,84.193843 137.69619,84.193843 136.30101,86.668618 V 95.25559 Q 137.67958,97.713755 140.51976,97.713755 142.72879,97.713755 144.02431,95.969786 145.33644,94.209208 145.33644,90.754488 Z M 163.40728,99.889565 Q 163.14153,99.358069 162.97544,97.996112 160.83285,100.22175 157.85979,100.22175 155.20232,100.22175 153.49157,98.726918 151.79742,97.215479 151.79742,94.906796 151.79742,92.099836 153.92341,90.555178 156.066,88.99391 159.93595,88.99391 H 162.92561 V 87.582126 Q 162.92561,85.97103 161.96227,85.024304 160.99894,84.060969 159.12209,84.060969 157.47778,84.060969 156.36496,84.891431 155.25214,85.721892 155.25214,86.901147 H 152.16283 Q 152.16283,85.5558 153.10955,84.310108 154.07289,83.047806 155.70059,82.317 157.34491,81.586194 159.3048,81.586194 162.41072,81.586194 164.1713,83.147462 165.93188,84.69212 165.99832,87.416033 V 95.68743 Q 165.99832,98.162205 166.62947,99.623817 V 99.889565 Z M 158.30824,97.547663 Q 159.75325,97.547663 161.04877,96.800248 162.34429,96.052833 162.92561,94.856968 V 91.169719 H 160.51727 Q 154.87013,91.169719 154.87013,94.474956 154.87013,95.919959 155.83347,96.733811 156.7968,97.547663 158.30824,97.547663 Z M 179.50162,84.675511 Q 178.80403,84.559246 177.99018,84.559246 174.9673,84.559246 173.8877,87.133677 V 99.889565 H 170.81499 V 81.918379 H 173.80465 L 173.85448,83.994532 Q 175.36592,81.586194 178.13966,81.586194 179.03656,81.586194 179.50162,81.818723 Z M 192.75578,99.889565 Q 192.49003,99.358069 192.32394,97.996112 190.18135,100.22175 187.2083,100.22175 184.55082,100.22175 182.84007,98.726918 181.14593,97.215479 181.14593,94.906796 181.14593,92.099836 183.27191,90.555178 185.4145,88.99391 189.28445,88.99391 H 192.27412 V 87.582126 Q 192.27412,85.97103 191.31078,85.024304 190.34744,84.060969 188.4706,84.060969 186.82629,84.060969 185.71347,84.891431 184.60065,85.721892 184.60065,86.901147 H 181.51133 Q 181.51133,85.5558 182.45806,84.310108 183.4214,83.047806 185.0491,82.317 186.69341,81.586194 188.6533,81.586194 191.75923,81.586194 193.51981,83.147462 195.28039,84.69212 195.34682,87.416033 V 95.68743 Q 195.34682,98.162205 195.97797,99.623817 V 99.889565 Z M 187.65675,97.547663 Q 189.10175,97.547663 190.39727,96.800248 191.69279,96.052833 192.27412,94.856968 V 91.169719 H 189.86578 Q 184.21864,91.169719 184.21864,94.474956 184.21864,95.919959 185.18197,96.733811 186.14531,97.547663 187.65675,97.547663 Z M 203.05351,81.918379 203.13656,83.911486 Q 205.11305,81.586194 208.46812,81.586194 212.23841,81.586194 213.60037,84.4762 214.49727,83.18068 215.92566,82.383437 217.37066,81.586194 219.33055,81.586194 225.24344,81.586194 225.34309,87.847873 V 99.889565 H 222.27039 V 88.030575 Q 222.27039,86.103904 221.3901,85.157178 220.50981,84.193843 218.43366,84.193843 216.7229,84.193843 215.59348,85.223615 214.46405,86.236778 214.28135,87.964138 V 99.889565 H 211.19203 V 88.113621 Q 211.19203,84.193843 207.3553,84.193843 204.33242,84.193843 203.2196,86.768273 V 99.889565 H 200.14689 V 81.918379 Z M 237.43462,100.22175 Q 233.78058,100.22175 231.48851,97.83002 229.19644,95.421682 229.19644,91.402248 V 90.837535 Q 229.19644,88.163449 230.2096,86.070686 231.23937,83.961314 233.06639,82.782058 234.91001,81.586194 237.0526,81.586194 240.55715,81.586194 242.50043,83.894877 244.44371,86.20356 244.44371,90.50535 V 91.784261 H 232.26914 Q 232.33558,94.441737 233.8138,96.086051 235.30863,97.713755 237.60071,97.713755 239.22841,97.713755 240.35784,97.049386 241.48727,96.385017 242.33434,95.288808 L 244.21118,96.75042 Q 241.95233,100.22175 237.43462,100.22175 Z M 237.0526,84.110797 Q 235.19237,84.110797 233.93007,85.472754 232.66777,86.818101 232.3688,89.259658 H 241.371 V 89.027129 Q 241.23813,86.685227 240.1087,85.406317 238.97927,84.110797 237.0526,84.110797 Z M 252.167,77.566761 V 81.918379 H 255.52206 V 84.293498 H 252.167 V 95.438291 Q 252.167,96.517891 252.61545,97.065996 253.0639,97.597491 254.1435,97.597491 254.67499,97.597491 255.60511,97.39818 V 99.889565 Q 254.39264,100.22175 253.2466,100.22175 251.18705,100.22175 250.14067,98.976057 249.09429,97.730365 249.09429,95.438291 V 84.293498 H 245.82227 V 81.918379 H 249.09429 V 77.566761 Z M 267.79628,84.675511 Q 267.09869,84.559246 266.28484,84.559246 263.26196,84.559246 262.18236,87.133677 V 99.889565 H 259.10965 V 81.918379 H 262.09932 L 262.14914,83.994532 Q 263.66058,81.586194 266.43432,81.586194 267.33122,81.586194 267.79628,81.818723 Z M 273.9583,99.889565 H 270.8856 V 81.918379 H 273.9583 Z M 270.63646,77.15153 Q 270.63646,76.404114 271.08491,75.889228 271.54996,75.374342 272.44686,75.374342 273.34376,75.374342 273.80882,75.889228 274.27388,76.404114 274.27388,77.15153 274.27388,77.898945 273.80882,78.397222 273.34376,78.895499 272.44686,78.895499 271.54996,78.895499 271.08491,78.397222 270.63646,77.898945 270.63646,77.15153 Z M 286.08304,97.713755 Q 287.72736,97.713755 288.95644,96.717202 290.18552,95.720648 290.3184,94.225817 H 293.22501 Q 293.14197,95.770476 292.16202,97.165651 291.18208,98.560826 289.53776,99.391288 287.91006,100.22175 286.08304,100.22175 282.4124,100.22175 280.2366,97.780192 278.0774,95.322026 278.0774,91.070064 V 90.555178 Q 278.0774,87.93092 279.04073,85.887984 280.00407,83.845049 281.79786,82.715622 283.60827,81.586194 286.06644,81.586194 289.08931,81.586194 291.08242,83.3966 293.09214,85.207006 293.22501,88.097012 H 290.3184 Q 290.18552,86.353043 288.98966,85.240224 287.8104,84.110797 286.06644,84.110797 283.72453,84.110797 282.42901,85.804938 281.1501,87.48247 281.1501,90.671442 V 91.252765 Q 281.1501,94.358691 282.42901,96.036223 283.70792,97.713755 286.08304,97.713755 Z M 309.25291,86.303215 H 311.5616 Q 313.73741,86.269997 314.9831,85.157178 316.22879,84.04436 316.22879,82.150908 316.22879,77.898945 311.99344,77.898945 310.00033,77.898945 308.80446,79.044982 307.62521,80.17441 307.62521,82.051252 H 304.5525 Q 304.5525,79.177856 306.64526,77.284404 308.75464,75.374342 311.99344,75.374342 315.41494,75.374342 317.35822,77.184748 319.3015,78.995154 319.3015,82.217345 319.3015,83.795221 318.27173,85.273443 317.25856,86.751664 315.49798,87.48247 317.49109,88.113621 318.57069,89.575233 319.6669,91.036845 319.6669,93.146217 319.6669,96.401626 317.54092,98.311688 315.41494,100.22175 312.01005,100.22175 308.60515,100.22175 306.46256,98.378125 304.33658,96.5345 304.33658,93.511621 H 307.4259 Q 307.4259,95.421682 308.67159,96.567719 309.91728,97.713755 312.01005,97.713755 314.23568,97.713755 315.41494,96.551109 316.59419,95.388463 316.59419,93.212654 316.59419,91.103282 315.29867,89.973855 314.00315,88.844427 311.5616,88.811209 H 309.25291 Z M 324.68289,99.889565 V 75.706527 H 331.50928 Q 334.66504,75.706527 337.08998,77.101702 339.51493,78.496877 340.82706,81.071308 342.1558,83.645738 342.17241,86.984193 V 88.528852 Q 342.17241,91.950353 340.84367,94.524783 339.53154,97.099214 337.07338,98.47778 334.63182,99.856346 331.37641,99.889565 Z M 327.87186,78.330785 V 97.281916 H 331.22693 Q 334.91418,97.281916 336.95711,94.989842 339.01666,92.697768 339.01666,88.462415 V 87.05063 Q 339.01666,82.931542 337.07338,80.656077 335.1467,78.364004 331.59233,78.330785 Z M 373.19844,92.216101 Q 372.74999,96.052833 370.35826,98.145595 367.98314,100.22175 364.03015,100.22175 359.74497,100.22175 357.15393,97.149042 354.5795,94.076334 354.5795,88.927473 V 86.602181 Q 354.5795,83.230508 355.77536,80.672686 356.98783,78.114865 359.19686,76.752908 361.40589,75.374342 364.3125,75.374342 368.16584,75.374342 370.49114,77.533542 372.81643,79.676133 373.19844,83.479646 H 369.99286 Q 369.57763,80.58964 368.18245,79.29412 366.80389,77.9986 364.3125,77.9986 361.25641,77.9986 359.51244,80.257456 357.78508,82.516311 357.78508,86.685227 V 89.027129 Q 357.78508,92.963516 359.42939,95.288808 361.0737,97.6141 364.03015,97.6141 366.68762,97.6141 368.09941,96.418236 369.5278,95.205762 369.99286,92.216101 Z M 390.90388,93.578057 H 380.77225 L 378.49679,99.889565 H 375.20816 L 384.44289,75.706527 H 387.23324 L 396.48458,99.889565 H 393.21257 Z M 381.73559,90.953799 H 389.95716 L 385.83807,79.642914 Z M 399.74,99.889565 V 75.706527 H 406.5664 Q 409.72215,75.706527 412.1471,77.101702 414.57205,78.496877 415.88417,81.071308 417.21291,83.645738 417.22952,86.984193 V 88.528852 Q 417.22952,91.950353 415.90078,94.524783 414.58866,97.099214 412.13049,98.47778 409.68893,99.856346 406.43352,99.889565 Z M 402.92898,78.330785 V 97.281916 H 406.28404 Q 409.97129,97.281916 412.01422,94.989842 414.07377,92.697768 414.07377,88.462415 V 87.05063 Q 414.07377,82.931542 412.13049,80.656077 410.20382,78.364004 406.64944,78.330785 Z"
       id="text2"
       aria-label="parametric 3D CAD" />
  </g>
</svg>
